<svg width="13" height="14" viewBox="0 0 13 14" fill="none" xmlns="http://www.w3.org/2000/svg">
<path d="M12.67 6.61994C12.6224 6.49719 12.551 6.38505 12.46 6.28994L7.46 1.28994C7.36676 1.1967 7.25607 1.12274 7.13425 1.07228C7.01243 1.02182 6.88186 0.99585 6.75 0.99585C6.4837 0.99585 6.2283 1.10164 6.04 1.28994C5.94676 1.38318 5.8728 1.49387 5.82234 1.61569C5.77188 1.73751 5.74591 1.86808 5.74591 1.99994C5.74591 2.26624 5.8517 2.52164 6.04 2.70994L9.34 5.99994H1.75C1.48478 5.99994 1.23043 6.1053 1.04289 6.29283C0.855357 6.48037 0.75 6.73472 0.75 6.99994C0.75 7.26516 0.855357 7.51951 1.04289 7.70705C1.23043 7.89458 1.48478 7.99994 1.75 7.99994H9.34L6.04 11.2899C5.94627 11.3829 5.87188 11.4935 5.82111 11.6154C5.77034 11.7372 5.7442 11.8679 5.7442 11.9999C5.7442 12.132 5.77034 12.2627 5.82111 12.3845C5.87188 12.5064 5.94627 12.617 6.04 12.7099C6.13296 12.8037 6.24356 12.8781 6.36542 12.9288C6.48728 12.9796 6.61799 13.0057 6.75 13.0057C6.88201 13.0057 7.01272 12.9796 7.13458 12.9288C7.25644 12.8781 7.36704 12.8037 7.46 12.7099L12.46 7.70994C12.551 7.61484 12.6224 7.50269 12.67 7.37994C12.77 7.13648 12.77 6.8634 12.67 6.61994Z" fill="#9AB0C5"/>
</svg>
