<svg width="15" height="11" viewBox="0 0 15 11" fill="none" xmlns="http://www.w3.org/2000/svg">
<path d="M13.7856 0.848533C13.6927 0.754804 13.5821 0.68041 13.4602 0.629641C13.3384 0.578872 13.2076 0.552734 13.0756 0.552734C12.9436 0.552734 12.8129 0.578872 12.6911 0.629641C12.5692 0.68041 12.4586 0.754804 12.3656 0.848533L4.91563 8.30853L1.78563 5.16853C1.68911 5.07529 1.57517 5.00198 1.45032 4.95278C1.32546 4.90357 1.19214 4.87944 1.05796 4.88176C0.923775 4.88409 0.791366 4.91281 0.668287 4.96631C0.545209 5.0198 0.433872 5.09701 0.340633 5.19353C0.247395 5.29006 0.174081 5.404 0.124877 5.52885C0.0756729 5.65371 0.0515424 5.78703 0.0538639 5.92121C0.0561853 6.05539 0.0849131 6.1878 0.138407 6.31088C0.1919 6.43396 0.269112 6.54529 0.365633 6.63853L4.20563 10.4785C4.2986 10.5723 4.4092 10.6467 4.53106 10.6974C4.65292 10.7482 4.78362 10.7743 4.91563 10.7743C5.04765 10.7743 5.17835 10.7482 5.30021 10.6974C5.42207 10.6467 5.53267 10.5723 5.62563 10.4785L13.7856 2.31853C13.8871 2.22489 13.9681 2.11124 14.0236 1.98474C14.079 1.85824 14.1076 1.72163 14.1076 1.58353C14.1076 1.44543 14.079 1.30883 14.0236 1.18233C13.9681 1.05583 13.8871 0.942175 13.7856 0.848533Z" fill="white"/>
</svg>
