<svg width="80" height="80" viewBox="0 0 80 80" fill="none" xmlns="http://www.w3.org/2000/svg">
<path d="M0 8C0 3.58172 3.58172 0 8 0H72C76.4183 0 80 3.58172 80 8V72C80 76.4183 76.4183 80 72 80H8C3.58172 80 0 76.4183 0 72V8Z" fill="#8D3A45"/>
<path d="M58 20H34C33.4696 20 32.9609 20.2107 32.5858 20.5858C32.2107 20.9609 32 21.4696 32 22V30H28C27.4696 30 26.9609 30.2107 26.5858 30.5858C26.2107 30.9609 26 31.4696 26 32V40H22C21.4696 40 20.9609 40.2107 20.5858 40.5858C20.2107 40.9609 20 41.4696 20 42V58C20 58.5304 20.2107 59.0391 20.5858 59.4142C20.9609 59.7893 21.4696 60 22 60H38C38.5304 60 39.0391 59.7893 39.4142 59.4142C39.7893 59.0391 40 58.5304 40 58V54H48C48.5304 54 49.0391 53.7893 49.4142 53.4142C49.7893 53.0391 50 52.5304 50 52V48H58C58.5304 48 59.0391 47.7893 59.4142 47.4142C59.7893 47.0391 60 46.5304 60 46V22C60 21.4696 59.7893 20.9609 59.4142 20.5858C59.0391 20.2107 58.5304 20 58 20ZM36 56H24V44H36V56ZM46 50H40V42C40 41.4696 39.7893 40.9609 39.4142 40.5858C39.0391 40.2107 38.5304 40 38 40H30V34H46V50ZM56 44H50V32C50 31.4696 49.7893 30.9609 49.4142 30.5858C49.0391 30.2107 48.5304 30 48 30H36V24H56V44Z" fill="url(#paint0_linear_1606_28202)"/>
<defs>
<linearGradient id="paint0_linear_1606_28202" x1="22.2917" y1="40" x2="60" y2="40" gradientUnits="userSpaceOnUse">
<stop stop-color="#FE8367"/>
<stop offset="1" stop-color="#FE7688"/>
</linearGradient>
</defs>
</svg>
