<svg width="24" height="24" viewBox="0 0 24 24" fill="none" xmlns="http://www.w3.org/2000/svg">
<path d="M21.9586 10.434C21.8612 10.1733 21.6119 10 21.3332 10H13.2832L17.9266 0.972C18.0726 0.688 17.9972 0.340667 17.7459 0.143333C17.6246 0.0473333 17.4786 0 17.3332 0C17.1779 0 17.0226 0.0546667 16.8979 0.162L11.9999 4.392L2.23122 12.8287C2.02056 13.0107 1.94456 13.3047 2.04189 13.5653C2.13922 13.826 2.38789 14 2.66656 14H10.7166L6.07322 23.028C5.92722 23.312 6.00256 23.6593 6.25389 23.8567C6.37522 23.9527 6.52122 24 6.66656 24C6.82189 24 6.97722 23.9453 7.10189 23.838L11.9999 19.608L21.7686 11.1713C21.9799 10.9893 22.0552 10.6953 21.9586 10.434V10.434Z" fill="#FFAC33"/>
</svg>
