<svg width="19" height="28" viewBox="0 0 19 28" fill="none" xmlns="http://www.w3.org/2000/svg">
<path d="M14.8334 0.666992H4.16676C3.10589 0.666992 2.08848 1.08842 1.33833 1.83857C0.588186 2.58871 0.166759 3.60613 0.166759 4.66699V26.0003C0.165826 26.2353 0.226991 26.4663 0.344062 26.67C0.461134 26.8737 0.629953 27.0429 0.833425 27.1603C1.03612 27.2774 1.26604 27.339 1.50009 27.339C1.73414 27.339 1.96407 27.2774 2.16676 27.1603L9.50009 22.9203L16.8334 27.1603C17.0366 27.2755 17.2665 27.3353 17.5001 27.3337C17.7337 27.3353 17.9636 27.2755 18.1668 27.1603C18.3702 27.0429 18.539 26.8737 18.6561 26.67C18.7732 26.4663 18.8344 26.2353 18.8334 26.0003V4.66699C18.8334 3.60613 18.412 2.58871 17.6619 1.83857C16.9117 1.08842 15.8943 0.666992 14.8334 0.666992ZM16.1668 23.6937L10.1668 20.227C9.96407 20.11 9.73414 20.0484 9.50009 20.0484C9.26604 20.0484 9.03612 20.11 8.83342 20.227L2.83343 23.6937V4.66699C2.83343 4.31337 2.9739 3.97423 3.22395 3.72418C3.474 3.47413 3.81314 3.33366 4.16676 3.33366H14.8334C15.187 3.33366 15.5262 3.47413 15.7762 3.72418C16.0263 3.97423 16.1668 4.31337 16.1668 4.66699V23.6937Z" fill="#3AB338"/>
</svg>
