<svg width="22" height="21" viewBox="0 0 22 21" fill="none" xmlns="http://www.w3.org/2000/svg">
<path d="M20.3447 10.454L10.5634 0.830707C10.1247 0.391374 9.54871 0.333374 8.97337 0.333374H2.25537C1.01937 0.333374 0.333374 1.01937 0.333374 2.25537V8.97671C0.333374 9.55071 0.392707 10.1254 0.830707 10.5634L10.5334 20.3447C10.7373 20.5522 10.9805 20.7169 11.2488 20.8294C11.5171 20.9419 11.8051 20.9998 12.096 20.9998C12.387 20.9998 12.675 20.9419 12.9433 20.8294C13.2115 20.7169 13.4548 20.5522 13.6587 20.3447L20.3647 13.6194C21.238 12.7447 21.218 11.3274 20.3447 10.454ZM4.61404 4.61404C4.52137 4.70675 4.41135 4.78031 4.29025 4.8305C4.16916 4.88069 4.03936 4.90654 3.90828 4.90657C3.77719 4.9066 3.64738 4.88082 3.52626 4.83068C3.40515 4.78054 3.29509 4.70704 3.20237 4.61437C3.10966 4.5217 3.03611 4.41168 2.98591 4.29059C2.93572 4.16949 2.90987 4.0397 2.90984 3.90861C2.90981 3.77752 2.9356 3.64772 2.98573 3.5266C3.03587 3.40548 3.10937 3.29542 3.20204 3.20271C3.29471 3.10999 3.40473 3.03644 3.52583 2.98625C3.64692 2.93606 3.77672 2.91021 3.9078 2.91017C4.03889 2.91014 4.1687 2.93593 4.28982 2.98607C4.41094 3.0362 4.52099 3.1097 4.61371 3.20237C4.70642 3.29504 4.77997 3.40507 4.83017 3.52616C4.88036 3.64726 4.90621 3.77705 4.90624 3.90814C4.90627 4.03922 4.88048 4.16903 4.83035 4.29015C4.78021 4.41127 4.70671 4.52133 4.61404 4.61404Z" fill="#FFD983"/>
</svg>
