<svg width="100" height="101" viewBox="0 0 100 101" fill="none" xmlns="http://www.w3.org/2000/svg">
<path d="M37.5 43.0003H50C51.3261 43.0003 52.5979 42.4736 53.5356 41.5359C54.4732 40.5982 55 39.3264 55 38.0003C55 36.6743 54.4732 35.4025 53.5356 34.4648C52.5979 33.5271 51.3261 33.0003 50 33.0003H45V30.5003C45 29.1743 44.4732 27.9025 43.5356 26.9648C42.5979 26.0271 41.3261 25.5003 40 25.5003C38.674 25.5003 37.4022 26.0271 36.4645 26.9648C35.5268 27.9025 35 29.1743 35 30.5003V33.2503C31.9622 33.8672 29.2618 35.5908 27.4233 38.0867C25.5848 40.5825 24.7392 43.6724 25.0508 46.7566C25.3623 49.8408 26.8087 52.6992 29.1092 54.7769C31.4097 56.8546 34.4002 58.0035 37.5 58.0003H42.5C43.1631 58.0003 43.799 58.2637 44.2678 58.7326C44.7366 59.2014 45 59.8373 45 60.5003C45 61.1634 44.7366 61.7993 44.2678 62.2681C43.799 62.737 43.1631 63.0003 42.5 63.0003H30C28.674 63.0003 27.4022 63.5271 26.4645 64.4648C25.5268 65.4025 25 66.6743 25 68.0003C25 69.3264 25.5268 70.5982 26.4645 71.5359C27.4022 72.4736 28.674 73.0003 30 73.0003H35V75.5003C35 76.8264 35.5268 78.0982 36.4645 79.0359C37.4022 79.9736 38.674 80.5003 40 80.5003C41.3261 80.5003 42.5979 79.9736 43.5356 79.0359C44.4732 78.0982 45 76.8264 45 75.5003V72.7504C48.0379 72.1335 50.7382 70.4098 52.5768 67.914C54.4153 65.4182 55.2608 62.3283 54.9493 59.2441C54.6378 56.1599 53.1914 53.3015 50.8909 51.2238C48.5904 49.146 45.5999 47.9972 42.5 48.0003H37.5C36.837 48.0003 36.2011 47.737 35.7323 47.2681C35.2634 46.7993 35 46.1634 35 45.5003C35 44.8373 35.2634 44.2014 35.7323 43.7326C36.2011 43.2637 36.837 43.0003 37.5 43.0003ZM95 50.5003H80V5.50034C80.0035 4.61929 79.7742 3.75296 79.3351 2.98907C78.8961 2.22518 78.2631 1.59086 77.5 1.15034C76.7399 0.7115 75.8777 0.480469 75 0.480469C74.1223 0.480469 73.2601 0.7115 72.5 1.15034L57.5 9.75034L42.5 1.15034C41.7399 0.7115 40.8777 0.480469 40 0.480469C39.1224 0.480469 38.2601 0.7115 37.5 1.15034L22.5 9.75034L7.50004 1.15034C6.73994 0.7115 5.87772 0.480469 5.00004 0.480469C4.12236 0.480469 3.26013 0.7115 2.50004 1.15034C1.73702 1.59086 1.10395 2.22518 0.66493 2.98907C0.225914 3.75296 -0.00345842 4.61929 3.94144e-05 5.50034V85.5003C3.94144e-05 89.4786 1.58039 93.2939 4.39344 96.1069C7.20648 98.92 11.0218 100.5 15 100.5H85C88.9783 100.5 92.7936 98.92 95.6066 96.1069C98.4197 93.2939 100 89.4786 100 85.5003V55.5003C100 54.1743 99.4733 52.9025 98.5356 51.9648C97.5979 51.0271 96.3261 50.5003 95 50.5003ZM15 90.5003C13.674 90.5003 12.4022 89.9736 11.4645 89.0359C10.5268 88.0982 10 86.8264 10 85.5003V14.1503L20 19.8503C20.7717 20.2534 21.6294 20.4639 22.5 20.4639C23.3706 20.4639 24.2283 20.2534 25 19.8503L40 11.2503L55 19.8503C55.7717 20.2534 56.6294 20.4639 57.5 20.4639C58.3706 20.4639 59.2283 20.2534 60 19.8503L70 14.1503V85.5003C70.0136 87.2061 70.3179 88.897 70.9 90.5003H15ZM90 85.5003C90 86.8264 89.4733 88.0982 88.5356 89.0359C87.5979 89.9736 86.3261 90.5003 85 90.5003C83.674 90.5003 82.4022 89.9736 81.4645 89.0359C80.5268 88.0982 80 86.8264 80 85.5003V60.5003H90V85.5003Z" fill="#808083"/>
</svg>
