<svg width="41" height="40" viewBox="0 0 41 40" fill="none" xmlns="http://www.w3.org/2000/svg">
<g clip-path="url(#clip0_3061_3408)">
<path d="M40.5 20C40.5 31.0451 31.5451 40 20.5 40C9.45492 40 0.5 31.0451 0.5 20C0.5 8.95492 9.45492 0 20.5 0C31.5474 0 40.5 8.95492 40.5 20Z" fill="#2081E2"/>
<path d="M10.3672 20.6721L10.4535 20.5364L15.6563 12.3973C15.7323 12.2782 15.9111 12.2905 15.9686 12.4199C16.8378 14.3679 17.5878 16.7905 17.2364 18.2988C17.0864 18.9193 16.6755 19.7597 16.2131 20.5364C16.1536 20.6495 16.0878 20.7604 16.0179 20.8673C15.985 20.9166 15.9296 20.9454 15.87 20.9454H10.5192C10.3754 20.9454 10.2912 20.7892 10.3672 20.6721Z" fill="white"/>
<path d="M33.5577 22.1844V23.4728C33.5577 23.5467 33.5125 23.6125 33.4467 23.6412C33.044 23.8138 31.6652 24.4467 31.0919 25.244C29.6289 27.2803 28.5111 30.192 26.0124 30.192H15.5883C11.8938 30.192 8.8999 27.1879 8.8999 23.481V23.3618C8.8999 23.2632 8.98002 23.183 9.07866 23.183H14.8897C15.0047 23.183 15.089 23.2899 15.0787 23.4029C15.0376 23.781 15.1075 24.1673 15.2863 24.5186C15.6315 25.2194 16.3465 25.657 17.1191 25.657H19.9959V23.4111H17.152C17.0061 23.4111 16.9199 23.2426 17.0041 23.1234C17.0349 23.0762 17.0699 23.0269 17.1068 22.9714C17.376 22.5892 17.7603 21.9954 18.1425 21.3193C18.4034 20.8632 18.6561 20.3762 18.8596 19.8871C18.9007 19.7988 18.9335 19.7083 18.9664 19.62C19.0219 19.4638 19.0795 19.3179 19.1205 19.172C19.1617 19.0487 19.1945 18.9193 19.2274 18.798C19.324 18.383 19.3651 17.9432 19.3651 17.4871C19.3651 17.3083 19.3569 17.1213 19.3404 16.9426C19.3322 16.7474 19.3075 16.5521 19.2829 16.3569C19.2664 16.1843 19.2356 16.0138 19.2027 15.835C19.1617 15.574 19.1041 15.3152 19.0383 15.0542L19.0157 14.9556C18.9664 14.7768 18.9253 14.6062 18.8678 14.4275C18.7055 13.8665 18.5185 13.3199 18.3212 12.8083C18.2493 12.6048 18.1671 12.4096 18.0849 12.2144C17.9637 11.9206 17.8404 11.6535 17.7274 11.4007C17.6699 11.2856 17.6205 11.1808 17.5712 11.074C17.5157 10.9528 17.4582 10.8315 17.4007 10.7165C17.3596 10.6281 17.3123 10.5459 17.2794 10.4637L16.9281 9.8144C16.8787 9.72604 16.9609 9.62124 17.0575 9.64796L19.2562 10.2438H19.2623C19.2664 10.2438 19.2685 10.2459 19.2705 10.2459L19.5603 10.326L19.8788 10.4165L19.9959 10.4493V9.14248C19.9959 8.51164 20.5014 8 21.1261 8C21.4384 8 21.7219 8.1274 21.9254 8.33492C22.1288 8.54248 22.2562 8.82604 22.2562 9.14248V11.0822L22.4905 11.148C22.5089 11.1542 22.5274 11.1624 22.5439 11.1747C22.6014 11.2178 22.6836 11.2815 22.7884 11.3596C22.8706 11.4254 22.9589 11.5055 23.0658 11.5877C23.2774 11.7582 23.5302 11.9781 23.8076 12.2309C23.8815 12.2946 23.9535 12.3603 24.0192 12.4261C24.3768 12.759 24.7775 13.1494 25.1597 13.5809C25.2665 13.7021 25.3713 13.8254 25.4781 13.9548C25.585 14.0864 25.698 14.2158 25.7966 14.3453C25.9261 14.5179 26.0658 14.6966 26.1871 14.8836C26.2446 14.972 26.3103 15.0624 26.3658 15.1508C26.522 15.387 26.6597 15.6316 26.7912 15.8761C26.8467 15.9891 26.9042 16.1124 26.9535 16.2336C27.0994 16.5604 27.2145 16.8932 27.2884 17.2261C27.311 17.298 27.3275 17.3761 27.3357 17.446V17.4624C27.3603 17.561 27.3686 17.6658 27.3768 17.7727C27.4097 18.1138 27.3932 18.4549 27.3193 18.798C27.2884 18.944 27.2473 19.0816 27.198 19.2275C27.1487 19.3672 27.0994 19.5131 27.0357 19.6508C26.9124 19.9364 26.7665 20.222 26.5939 20.4892C26.5384 20.5878 26.4727 20.6926 26.4069 20.7912C26.335 20.896 26.261 20.9946 26.1953 21.0912C26.1049 21.2145 26.0083 21.344 25.9097 21.459C25.8213 21.5803 25.7309 21.7015 25.6323 21.8084C25.4946 21.9707 25.3631 22.1248 25.2254 22.2728C25.1432 22.3693 25.0549 22.468 24.9644 22.5563C24.8761 22.6549 24.7857 22.7433 24.7035 22.8255C24.5658 22.9632 24.4507 23.07 24.3541 23.1584L24.1281 23.3659C24.0953 23.3947 24.0521 23.4111 24.0069 23.4111H22.2562V25.657H24.4589C24.9521 25.657 25.4206 25.4824 25.7987 25.1618C25.9281 25.0488 26.4932 24.5598 27.161 23.8221C27.1836 23.7974 27.2124 23.7789 27.2453 23.7707L33.3296 22.0118C33.4426 21.9789 33.5577 22.0652 33.5577 22.1844Z" fill="white"/>
</g>
<defs>
<clipPath id="clip0_3061_3408">
<rect width="40" height="40" fill="white" transform="translate(0.5)"/>
</clipPath>
</defs>
</svg>
