<svg width="24" height="24" viewBox="0 0 24 24" fill="none" xmlns="http://www.w3.org/2000/svg">
<path d="M0 12C0 5.37258 5.37258 0 12 0V0C18.6274 0 24 5.37258 24 12V12C24 18.6274 18.6274 24 12 24V24C5.37258 24 0 18.6274 0 12V12Z" fill="#8447E3"/>
<path d="M15.6005 9.52478C15.3447 9.37857 15.0157 9.37857 14.7232 9.52478L12.6763 10.731L11.2872 11.4987L9.27676 12.7049C9.02089 12.8512 8.69191 12.8512 8.39948 12.7049L6.82768 11.7546C6.5718 11.6083 6.38903 11.3159 6.38903 10.9869V9.15925C6.38903 8.86682 6.53525 8.57439 6.82768 8.39162L8.39948 7.47779C8.65535 7.33157 8.98434 7.33157 9.27676 7.47779L10.8486 8.42818C11.1045 8.57439 11.2872 8.86682 11.2872 9.1958V10.4021L12.6763 9.59789V8.35506C12.6763 8.06264 12.5301 7.77021 12.2376 7.58744L9.31331 5.86943C9.05744 5.72321 8.72846 5.72321 8.43603 5.86943L5.43864 7.624C5.14621 7.77021 5 8.06264 5 8.35506V11.7911C5 12.0835 5.14621 12.3759 5.43864 12.5587L8.39948 14.2767C8.65535 14.423 8.98434 14.423 9.27676 14.2767L11.2872 13.107L12.6763 12.3028L14.6867 11.1331C14.9426 10.9869 15.2716 10.9869 15.5639 11.1331L17.1357 12.047C17.3916 12.1932 17.5744 12.4856 17.5744 12.8146V14.6423C17.5744 14.9347 17.4282 15.2271 17.1357 15.4099L15.6005 16.3237C15.3447 16.4699 15.0157 16.4699 14.7232 16.3237L13.1514 15.4099C12.8955 15.2637 12.7128 14.9712 12.7128 14.6423V13.4725L11.3237 14.2767V15.483C11.3237 15.7754 11.4699 16.0679 11.7624 16.2507L14.7232 17.9686C14.9791 18.1148 15.3081 18.1148 15.6005 17.9686L18.5613 16.2507C18.8172 16.1044 19 15.812 19 15.483V12.0105C19 11.718 18.8538 11.4256 18.5613 11.2428L15.6005 9.52478Z" fill="white"/>
</svg>
