<svg width="24" height="24" viewBox="0 0 24 24" fill="none" xmlns="http://www.w3.org/2000/svg">
<path d="M0.666664 11.3333L6 6.66663L16.6667 7.33329L17.3333 18L12.6667 23.3333C12.6667 23.3333 12.6673 19.334 8.66666 15.3333C4.666 11.3326 0.666664 11.3333 0.666664 11.3333Z" fill="#A0041E"/>
<path d="M0.648664 23.3334C0.648664 23.3334 0.624664 18.014 2.63866 16C4.65266 13.986 10 14.1247 10 14.1247C10 14.1247 9.99933 19.3334 7.99933 21.3334C5.99933 23.3334 0.648664 23.3334 0.648664 23.3334Z" fill="#FFAC33"/>
<path d="M5.99933 20.6667C7.47209 20.6667 8.666 19.4728 8.666 18C8.666 16.5273 7.47209 15.3334 5.99933 15.3334C4.52657 15.3334 3.33266 16.5273 3.33266 18C3.33266 19.4728 4.52657 20.6667 5.99933 20.6667Z" fill="#FFCC4D"/>
<path d="M23.9993 0C23.9993 0 17.3327 0 9.33266 6.66667C5.33266 10 5.33266 16 6.666 17.3333C7.99933 18.6667 13.9993 18.6667 17.3327 14.6667C23.9993 6.66667 23.9993 0 23.9993 0Z" fill="#55ACEE"/>
<path d="M17.9993 3.33337C17.4862 3.33398 16.9841 3.48279 16.5535 3.76189C16.1229 4.041 15.7821 4.43853 15.572 4.90671C15.9154 4.74956 16.2884 4.66773 16.666 4.66671C17.3732 4.66671 18.0515 4.94766 18.5516 5.44776C19.0517 5.94785 19.3327 6.62613 19.3327 7.33337C19.3327 7.72404 19.244 8.09271 19.0933 8.42671C19.5614 8.21677 19.9589 7.87605 20.2379 7.44554C20.5169 7.01502 20.6656 6.51306 20.666 6.00004C20.666 5.2928 20.385 4.61452 19.8849 4.11442C19.3849 3.61433 18.7066 3.33337 17.9993 3.33337Z" fill="black"/>
<path d="M5.33334 18.6667C5.33334 18.6667 5.33334 16 6 15.3334C6.66667 14.6667 14.6673 8.0007 15.3333 8.6667C15.9993 9.3327 9.33267 17.3334 8.666 18C7.99934 18.6667 5.33334 18.6667 5.33334 18.6667Z" fill="#A0041E"/>
</svg>
